# xmcd
#
# Track frame offsets:
#	150
#	22355
#	44560
#	65567
#
# Disc length: 1152 seconds
#
# Revision: 1
# Processed by: cddbd v1.5.1PL0 Copyright (c) Steve Scherf et al.
# Submitted via: CDex 1.50Beta5
#
DISCID=3a047e04
DTITLE=天童よしみ - 夢うぐいす
DYEAR=2002
DGENRE=Enka
TTITLE0=夢うぐいす
TTITLE1=夢うぐいす(オリジナル・カラオケ)
TTITLE2=夢を担(かつ)いで
TTITLE3=夢を担(かつ)いで(オリジナル・カラオケ)
EXTD=
EXTT0=
EXTT1=
EXTT2=
EXTT3=
PLAYORDER=
